<svg version="1.1" id="Layer_1" xmlns="http://www.w3.org/2000/svg" xmlns:xlink="http://www.w3.org/1999/xlink" x="0px" y="0px"
	 width="100%" viewBox="0 0 512 512" enable-background="new 0 0 512 512" xml:space="preserve">
<path fill="#000000" opacity="1.000000" stroke="none" 
	d="
M252.000000,513.000000 
	C168.020370,513.000000 84.540741,513.000000 1.030556,513.000000 
	C1.030556,342.395355 1.030556,171.790680 1.030556,1.093010 
	C171.562988,1.093010 342.126038,1.093010 512.844543,1.093010 
	C512.844543,171.666550 512.844543,342.333252 512.844543,513.000000 
	C426.123993,513.000000 339.311981,513.000000 252.000000,513.000000 
M335.500000,356.000916 
	C349.498047,356.000671 363.496552,356.068085 377.493958,355.974823 
	C385.927368,355.918640 392.366638,348.850220 393.145935,340.767975 
	C394.124786,330.615479 385.214447,323.014618 377.991486,323.010559 
	C339.996796,322.989197 302.001709,322.909485 264.007721,323.070343 
	C255.496002,323.106354 248.041397,330.908325 248.149094,339.403442 
	C248.267456,348.738678 255.300247,355.982849 264.509766,355.992401 
	C287.839813,356.016510 311.169922,356.000702 335.500000,356.000916 
M332.500000,174.000031 
	C309.681244,174.000015 286.862488,173.975174 264.043793,174.012451 
	C255.152893,174.026962 246.688309,182.727615 248.092743,190.773911 
	C249.855453,200.872894 255.925156,206.997528 266.827759,206.998566 
	C302.971313,207.002045 339.115082,207.055344 375.257965,206.901947 
	C378.385559,206.888687 381.715546,205.955093 384.590271,204.652023 
	C391.502594,201.518753 395.039978,193.576935 392.849823,185.948456 
	C390.826355,178.900604 383.980530,173.788269 377.470184,173.912399 
	C362.818237,174.191727 348.157288,174.000031 332.500000,174.000031 
M126.462433,352.972382 
	C130.818924,357.323029 135.176727,361.672394 139.531647,366.024597 
	C147.848206,374.335968 158.077240,374.390533 166.296204,366.170197 
	C181.120102,351.343872 195.881927,336.454620 210.811768,321.735779 
	C215.156891,317.452026 217.388977,312.709259 217.070236,306.519440 
	C216.740067,300.107086 213.668610,295.283112 207.216583,292.718018 
	C201.055527,290.268646 195.111404,290.482086 190.151062,295.379517 
	C179.020645,306.368713 168.018188,317.487518 156.951569,328.541443 
	C155.693787,329.797760 154.358688,330.976654 153.095169,332.158051 
	C139.591110,320.718719 132.790237,320.242126 123.867943,329.596527 
	C119.742874,333.921326 118.811424,347.077606 126.462433,352.972382 
M120.933105,188.215347 
	C119.724243,194.041565 121.682877,198.942108 125.618713,203.075363 
	C130.207779,207.894623 134.844482,212.689484 139.738876,217.192368 
	C147.890869,224.692307 157.915649,225.216904 166.093063,216.629883 
	C181.238602,200.725677 196.918762,185.320770 212.645569,169.984055 
	C220.487900,162.336243 217.853714,146.315231 205.973343,142.859070 
	C198.598541,140.713669 192.711411,142.929276 187.658005,147.891388 
	C175.857819,159.478378 164.257980,171.269409 152.316254,183.239136 
	C146.629578,175.605759 139.863937,171.711563 130.744629,175.165955 
	C125.202957,177.265152 121.413803,181.064743 120.933105,188.215347 
z"/>
<path fill="#AAAAAA" opacity="1.000000" stroke="none" 
	d="
M335.000000,356.000916 
	C311.169922,356.000702 287.839813,356.016510 264.509766,355.992401 
	C255.300247,355.982849 248.267456,348.738678 248.149094,339.403442 
	C248.041397,330.908325 255.496002,323.106354 264.007721,323.070343 
	C302.001709,322.909485 339.996796,322.989197 377.991486,323.010559 
	C385.214447,323.014618 394.124786,330.615479 393.145935,340.767975 
	C392.366638,348.850220 385.927368,355.918640 377.493958,355.974823 
	C363.496552,356.068085 349.498047,356.000671 335.000000,356.000916 
z"/>
<path fill="#AAAAAA" opacity="1.000000" stroke="none" 
	d="
M333.000000,174.000031 
	C348.157288,174.000031 362.818237,174.191727 377.470184,173.912399 
	C383.980530,173.788269 390.826355,178.900604 392.849823,185.948456 
	C395.039978,193.576935 391.502594,201.518753 384.590271,204.652023 
	C381.715546,205.955093 378.385559,206.888687 375.257965,206.901947 
	C339.115082,207.055344 302.971313,207.002045 266.827759,206.998566 
	C255.925156,206.997528 249.855453,200.872894 248.092743,190.773911 
	C246.688309,182.727615 255.152893,174.026962 264.043793,174.012451 
	C286.862488,173.975174 309.681244,174.000015 333.000000,174.000031 
z"/>
<path fill="#AAAAAA" opacity="1.000000" stroke="none" 
	d="
M126.213394,352.710693 
	C118.811424,347.077606 119.742874,333.921326 123.867943,329.596527 
	C132.790237,320.242126 139.591110,320.718719 153.095169,332.158051 
	C154.358688,330.976654 155.693787,329.797760 156.951569,328.541443 
	C168.018188,317.487518 179.020645,306.368713 190.151062,295.379517 
	C195.111404,290.482086 201.055527,290.268646 207.216583,292.718018 
	C213.668610,295.283112 216.740067,300.107086 217.070236,306.519440 
	C217.388977,312.709259 215.156891,317.452026 210.811768,321.735779 
	C195.881927,336.454620 181.120102,351.343872 166.296204,366.170197 
	C158.077240,374.390533 147.848206,374.335968 139.531647,366.024597 
	C135.176727,361.672394 130.818924,357.323029 126.213394,352.710693 
z"/>
<path fill="#AAAAAA" opacity="1.000000" stroke="none" 
	d="
M120.962051,187.805328 
	C121.413803,181.064743 125.202957,177.265152 130.744629,175.165955 
	C139.863937,171.711563 146.629578,175.605759 152.316254,183.239136 
	C164.257980,171.269409 175.857819,159.478378 187.658005,147.891388 
	C192.711411,142.929276 198.598541,140.713669 205.973343,142.859070 
	C217.853714,146.315231 220.487900,162.336243 212.645569,169.984055 
	C196.918762,185.320770 181.238602,200.725677 166.093063,216.629883 
	C157.915649,225.216904 147.890869,224.692307 139.738876,217.192368 
	C134.844482,212.689484 130.207779,207.894623 125.618713,203.075363 
	C121.682877,198.942108 119.724243,194.041565 120.962051,187.805328 
z"/>
</svg>